<svg width="79" height="80" viewBox="0 0 79 80" fill="none" xmlns="http://www.w3.org/2000/svg">
<path d="M19.8082 0.1571C0.540327 0.24026 1.89678 0.173732 0.879442 1.15502C-0.0608282 2.05315 0.000828828 -0.890717 0.000828828 39.5251V76.5978L0.509499 77.496C0.864027 78.1446 1.18773 78.4939 1.6964 78.7766L2.39004 79.1425L39.1376 79.1592C66.5904 79.1592 76.024 79.1093 76.471 78.9596C77.2725 78.7101 78.2436 77.7954 78.6135 76.9471C78.9218 76.2818 78.9218 75.7829 78.9218 39.3255C78.9218 -1.43957 78.9989 1.83693 77.9661 0.905541C76.8717 -0.0923801 78.3823 -0.0258521 57.0644 0.024044C46.3207 0.057308 29.5654 0.107204 19.8082 0.1571ZM67.1762 19.8494L67.207 24.6561L66.5596 25.4211C65.8351 26.2527 65.6502 26.5687 62.4748 32.0906C58.4517 39.0927 57.8505 40.1571 56.417 42.5687C53.0413 48.2403 50.2976 53.0469 50.2205 53.3629C50.1897 53.5292 51.8698 53.5791 58.39 53.5459L66.5904 53.5292V58.602C66.5904 62.4773 66.5442 63.708 66.4055 63.8078C66.2976 63.8744 64.7099 63.9409 62.891 63.9575C37.1954 64.0573 32.9103 64.024 32.864 63.8078C32.8332 63.6249 34.0972 61.0469 34.5134 60.4482C34.5904 60.3484 34.8525 59.866 35.0991 59.3671C35.3457 58.8681 37.2571 55.3754 39.338 51.6332C41.4189 47.8744 43.6848 43.7662 44.3476 42.4856C45.0259 41.2049 45.9353 39.5251 46.3515 38.7434C47.8313 36.0324 48.7561 34.3359 49.1107 33.6207C50.0355 31.8411 50.3284 31.2756 50.76 30.4274C51.022 29.9284 51.3457 29.313 51.5153 29.0635C51.6694 28.8307 51.7927 28.5978 51.7927 28.548C51.7927 28.4981 52.0702 27.9658 52.4093 27.3671C52.7484 26.7683 53.0259 26.2195 53.0259 26.1529C53.0259 26.0864 53.18 25.8702 53.365 25.654L53.6887 25.2714H47.1839H40.6636L40.7715 24.4731C40.8178 24.0407 41.0028 23.0927 41.1569 22.3608C41.6039 20.2652 42.3438 16.6062 42.4517 15.9076C42.5134 15.575 42.6367 15.2922 42.7446 15.2922C43.8236 15.3421 66.5288 15.076 66.5904 15.0261C66.6213 14.9762 66.76 14.9762 66.8987 14.9929C67.0991 15.0428 67.1299 15.6748 67.1762 19.8494ZM39.3997 15.3588C39.4459 15.4918 39.2301 16.4897 38.9218 17.5708C38.6135 18.6519 38.2282 20.0823 38.0586 20.7475C37.8891 21.4128 37.6733 22.2777 37.55 22.6602C37.4421 23.0428 37.2571 23.6914 37.1492 24.1072C37.0413 24.523 36.8409 24.9554 36.7022 25.0552C36.5326 25.2215 34.9912 25.2714 30.1819 25.2714H23.8929V29.8286C23.8929 33.4211 23.9392 34.4191 24.0933 34.5687C24.2475 34.6852 26.4671 34.7683 31.3843 34.785L38.4594 34.8349L38.4286 35.3338C38.4286 35.5999 38.3515 37.7455 38.2898 40.0739C38.2282 42.4024 38.1203 44.365 38.0432 44.4149C37.9661 44.4648 34.8062 44.5313 31.0143 44.548C27.2224 44.5646 24.0625 44.6477 23.9854 44.7309C23.9083 44.8141 23.9083 46.7766 23.97 49.2049L24.0779 53.5459H29.3033C32.1704 53.5459 34.5442 53.6124 34.5904 53.6789C34.6983 53.8785 32.9411 57.5875 31.7542 59.6997C31.523 60.1155 30.8756 61.2465 30.2898 62.2278L29.2571 64.024L21.8737 64.0573C17.8197 64.0739 14.3669 64.0906 14.2282 64.0906C14.0124 64.1072 13.9353 63.9243 13.8428 63.2756C13.7658 62.5604 13.6887 17.2714 13.7658 15.8744L13.7966 15.3754L22.3515 15.2922C40.4324 15.1093 39.3072 15.1093 39.3997 15.3588Z" fill="white"/>
</svg>
