<?xml version="1.0" standalone="no"?>
<!DOCTYPE svg PUBLIC "-//W3C//DTD SVG 20010904//EN"
 "http://www.w3.org/TR/2001/REC-SVG-20010904/DTD/svg10.dtd">
<svg version="1.0" xmlns="http://www.w3.org/2000/svg"
 width="1024.000000pt" height="1024.000000pt" viewBox="0 0 1024.000000 1024.000000"
 preserveAspectRatio="xMidYMid meet">

<g transform="translate(0.000000,1024.000000) scale(0.100000,-0.100000)"
fill="#000000" stroke="none">
<path d="M1042 6400 l-224 -5 -24 -28 -24 -28 0 -1106 c0 -1013 1 -1107 17
-1133 9 -16 27 -33 40 -39 17 -8 381 -11 1219 -11 l1196 0 34 34 34 34 0 1117
0 1117 -29 29 -29 29 -994 -2 c-546 -1 -1094 -5 -1216 -8z m995 -457 c-3 -10
-22 -78 -43 -150 l-38 -133 -208 0 -209 0 3 -142 3 -143 231 -3 231 -2 -5
-138 c-2 -75 -5 -138 -6 -139 -3 -3 -243 -12 -353 -12 l-103 -1 0 -135 0 -135
170 0 c94 0 170 -3 170 -7 0 -10 -88 -171 -132 -240 l-40 -63 -243 0 -243 0
-7 378 c-4 207 -5 436 -1 507 3 72 6 228 6 347 l0 218 338 3 c185 1 370 3 411
5 66 2 73 0 68 -15z m893 -129 c0 -93 -4 -145 -11 -150 -12 -7 -79 -109 -198
-301 -43 -71 -138 -222 -210 -338 l-132 -210 265 -3 266 -2 0 -150 0 -150
-112 0 c-62 0 -305 -3 -540 -7 -236 -3 -428 -3 -428 1 0 9 71 130 296 511 88
149 205 349 258 445 54 96 103 181 108 188 8 9 -33 12 -201 12 -198 0 -212 1
-207 18 3 9 17 71 31 137 14 66 27 125 29 130 2 6 144 10 395 11 l391 1 0
-143z"/>
<path d="M6883 5898 c-48 -12 -83 -60 -83 -114 0 -36 6 -51 33 -80 67 -73 185
-50 215 40 31 96 -60 181 -165 154z"/>
<path d="M3805 5886 c-135 -43 -214 -145 -223 -287 -6 -101 15 -171 68 -232
39 -44 154 -128 196 -143 10 -4 50 -25 87 -46 81 -47 107 -83 107 -151 0 -40
-5 -54 -29 -78 -26 -25 -37 -29 -85 -29 -47 0 -61 4 -87 28 -26 23 -32 38 -37
80 l-5 53 -116 -3 -116 -3 2 -62 c4 -144 102 -255 251 -284 86 -16 214 -7 278
20 132 57 203 202 174 356 -22 118 -87 188 -257 281 -173 93 -203 124 -203
205 0 56 50 109 104 109 75 0 119 -50 128 -145 l3 -30 108 -3 c127 -3 127 -4
108 101 -30 180 -149 278 -334 276 -45 0 -100 -6 -122 -13z"/>
<path d="M5100 5315 l0 -575 118 0 117 0 0 568 c0 366 -4 570 -10 574 -5 4
-58 8 -117 8 l-108 0 0 -575z"/>
<path d="M6337 5794 c-4 -4 -7 -54 -7 -110 l0 -103 -62 -3 -63 -3 0 -85 0 -85
61 -3 61 -3 5 -249 5 -250 29 -57 c42 -84 86 -106 221 -111 l103 -4 11 28 c10
26 7 139 -3 150 -3 2 -26 8 -52 13 -26 5 -52 13 -58 19 -20 20 -28 92 -28 274
l0 187 72 3 c70 3 72 4 71 28 0 14 -1 53 -2 88 l-1 62 -71 0 -70 0 2 108 2
107 -110 3 c-60 1 -112 -1 -116 -4z"/>
<path d="M4578 5576 c-70 -15 -133 -58 -169 -115 -50 -78 -54 -102 -54 -311 0
-193 0 -196 28 -252 30 -62 83 -115 149 -150 37 -19 58 -23 148 -23 89 0 113
4 155 23 95 44 152 122 175 238 14 73 8 342 -9 396 -51 160 -220 238 -423 194z
m164 -187 c38 -21 48 -68 48 -237 0 -149 -1 -161 -23 -193 -40 -60 -138 -63
-169 -5 -14 25 -24 284 -13 352 9 63 41 94 95 94 23 0 50 -5 62 -11z"/>
<path d="M7373 5572 c-101 -36 -173 -116 -192 -216 -32 -168 -20 -393 25 -477
55 -100 138 -150 260 -157 141 -8 251 40 312 135 46 71 54 128 50 335 -3 176
-4 185 -30 233 -58 109 -141 157 -283 162 -69 3 -102 -1 -142 -15z m190 -192
c36 -29 50 -105 45 -259 -3 -92 -8 -134 -20 -157 -26 -48 -92 -69 -140 -43
-38 20 -48 68 -48 234 0 207 15 244 101 245 22 0 47 -8 62 -20z"/>
<path d="M8266 5576 c-21 -8 -53 -28 -70 -45 -18 -17 -35 -31 -38 -31 -4 0 -8
17 -10 38 l-3 37 -105 0 -105 0 -3 -417 -2 -418 22 -1 c13 0 66 -1 118 -1 l95
-1 5 306 c5 281 6 307 24 326 39 43 131 35 159 -13 8 -15 14 -113 17 -321 l5
-300 110 0 110 0 3 309 c3 401 -8 450 -114 512 -56 33 -158 42 -218 20z"/>
<path d="M8917 5579 c-50 -12 -96 -35 -130 -68 -94 -87 -97 -253 -5 -338 24
-22 137 -78 220 -107 73 -27 98 -51 98 -95 0 -45 -23 -69 -71 -77 -43 -7 -85
23 -97 69 l-8 32 -115 3 -116 3 8 -57 c20 -145 157 -233 348 -222 63 4 93 11
138 34 102 52 156 167 132 282 -19 91 -77 141 -237 202 -94 36 -137 68 -145
106 -6 33 30 74 66 74 34 0 73 -34 80 -70 l7 -30 114 0 115 0 -5 38 c-3 20
-18 62 -33 92 -29 60 -92 111 -159 130 -44 12 -152 12 -205 -1z"/>
<path d="M5460 5249 c0 -223 4 -344 12 -370 15 -52 73 -117 122 -140 81 -37
191 -19 260 42 l45 40 3 -43 3 -42 105 0 105 1 3 421 2 422 -114 0 -114 0 -4
-303 c-3 -341 -5 -350 -74 -363 -43 -8 -77 6 -101 43 -16 24 -18 57 -20 323
l-3 295 -115 3 -115 3 0 -332z"/>
<path d="M6810 5165 c0 -323 3 -417 13 -420 6 -3 59 -6 117 -7 l105 -3 3 423
2 422 -120 0 -120 0 0 -415z"/>
<path d="M3663 4510 c-41 -25 -53 -48 -53 -105 0 -61 31 -92 128 -129 84 -32
101 -53 73 -88 -26 -32 -97 -32 -140 -1 -32 25 -56 22 -72 -9 -8 -15 -5 -24
20 -47 75 -70 242 -49 277 36 34 81 -4 143 -113 182 -100 36 -119 56 -89 90
25 28 85 28 119 1 25 -20 28 -20 52 -4 30 19 29 18 9 49 -31 47 -151 62 -211
25z"/>
<path d="M4274 4518 c-19 -24 -155 -408 -149 -418 3 -6 21 -10 40 -10 30 0 35
4 47 43 l15 42 90 3 91 3 14 -43 c13 -38 19 -43 48 -46 18 -2 37 1 41 5 7 7
-110 352 -141 413 -9 19 -83 26 -96 8z m80 -165 c14 -49 26 -91 26 -95 0 -5
-30 -8 -66 -8 -49 0 -65 3 -61 13 2 6 17 49 32 95 16 45 31 82 35 82 4 0 19
-39 34 -87z"/>
<path d="M4796 4511 c-37 -25 -55 -57 -56 -98 0 -68 30 -100 128 -134 94 -32
119 -74 62 -104 -41 -21 -68 -19 -119 10 l-44 26 -24 -23 -23 -22 22 -24 c32
-34 79 -52 138 -52 103 0 160 47 160 132 0 43 -4 54 -30 78 -17 16 -60 38 -97
51 -36 12 -74 30 -85 41 -50 50 62 94 124 48 28 -21 30 -21 49 -4 25 23 24 36
-7 65 -36 34 -154 40 -198 10z"/>
<path d="M3981 4171 c-27 -27 -27 -56 1 -75 30 -21 44 -20 68 4 23 23 25 40 8
62 -22 28 -55 31 -77 9z"/>
<path d="M4592 4174 c-50 -34 -2 -111 53 -86 33 15 34 64 3 86 -12 9 -25 16
-28 16 -3 0 -16 -7 -28 -16z"/>
<path d="M5112 4168 c-7 -7 -12 -24 -12 -38 0 -49 51 -68 83 -32 34 37 15 82
-33 82 -14 0 -31 -5 -38 -12z"/>
</g>
</svg>
