<svg width="30" height="30" viewBox="0 0 30 30" fill="none" xmlns="http://www.w3.org/2000/svg">
<path d="M27.6119 2.41257C25.9901 0.790109 23.6993 0.535645 20.9959 0.535645H8.97226C6.30072 0.535645 4.01054 0.790109 2.38808 2.41189C0.765614 4.03368 0.527435 6.30825 0.527435 8.96486V20.9878C0.527435 23.7075 0.766292 25.9658 2.38808 27.5882C4.00986 29.2107 6.30072 29.4645 9.02043 29.4645H20.9959C23.6993 29.4645 25.9901 29.21 27.6119 27.5882C29.2337 25.9665 29.4726 23.7075 29.4726 20.9878V9.01236C29.4726 6.29264 29.2344 4.01875 27.6119 2.41257ZM15 24.327C14.667 24.3265 14.3478 24.194 14.1122 23.9586C13.8767 23.7232 13.744 23.404 13.7433 23.071V16.2486H6.93722C6.23693 16.2486 5.68051 15.6759 5.68051 15.0082C5.68051 14.3405 6.23694 13.7359 6.93654 13.7359H13.7433V6.92847C13.7433 6.21325 14.2997 5.65614 15 5.65614C15.7159 5.65614 16.2567 6.21257 16.2567 6.92847V13.7359H23.0791C23.7794 13.7359 24.3358 14.3398 24.3358 15.0082C24.3358 15.6759 23.7794 16.2486 23.0791 16.2486H16.2567V23.0717C16.2577 23.237 16.2259 23.4008 16.1631 23.5537C16.1003 23.7066 16.0077 23.8454 15.8908 23.9623C15.7739 24.0791 15.635 24.1716 15.482 24.2343C15.3291 24.297 15.1653 24.3281 15 24.327Z" fill="white"/>
</svg>
