<?xml version="1.0" encoding="UTF-8"?>
<!DOCTYPE svg PUBLIC "-//W3C//DTD SVG 1.1//EN" "http://www.w3.org/Graphics/SVG/1.1/DTD/svg11.dtd">
<!-- Creator: CorelDRAW X6 -->
<svg xmlns="http://www.w3.org/2000/svg" xml:space="preserve" width="7.11111in" height="7.11111in" version="1.1" style="shape-rendering:geometricPrecision; text-rendering:geometricPrecision; image-rendering:optimizeQuality; fill-rule:evenodd; clip-rule:evenodd"
viewBox="0 0 7111 7111"
 xmlns:xlink="http://www.w3.org/1999/xlink">
 <defs>
  <style type="text/css">
   <![CDATA[
    .fil0 {fill:none}
    .fil1 {fill:#0091FF}
   ]]>
  </style>
 </defs>
 <g id="Layer_x0020_1">
  <metadata id="CorelCorpID_0Corel-Layer"/>
  <rect class="fil0" width="7111" height="7111"/>
  <path class="fil1" d="M4350 3017l-795 459 -1802 -1040c8,-14 20,-26 34,-34l748 -432 1814 1047 0 0zm-888 2698c-16,0 -32,-4 -47,-13l-1721 -993c-29,-17 -47,-48 -47,-81l0 -1987c0,-17 4,-33 13,-47l1802 1040 0 2080 0 0zm1277 -2710l712 -411c8,14 13,30 13,47l0 1987c0,33 -18,64 -47,81l-1721 993c-14,8 -31,13 -47,13l0 -2080 723 -417 0 320c0,17 9,32 23,40 14,8 32,8 47,0l274 -158c14,-8 23,-24 23,-40l0 -374zm-1836 -1248l606 -350c29,-17 65,-17 94,0l1721 993c14,8 26,20 34,34l-640 369 -1814 -1047 0 0z"/>
 </g>
</svg>
