<svg width="22" height="21" viewBox="0 0 22 21" fill="none" xmlns="http://www.w3.org/2000/svg">
<path fill-rule="evenodd" clip-rule="evenodd" d="M13.3746 5.85137e-08C13.8562 0.000109788 14.3255 0.133414 14.7161 0.38103C15.1068 0.628646 15.3989 0.978021 15.5511 1.37967L16.1741 3.02559H19.9373C20.2416 3.02559 20.5334 3.13184 20.7486 3.32098C20.9638 3.51011 21.0847 3.76664 21.0847 4.03412C21.0847 4.30159 20.9638 4.55812 20.7486 4.74725C20.5334 4.93639 20.2416 5.04264 19.9373 5.04264H18.79V17.145C18.79 17.9474 18.4273 18.717 17.7818 19.2844C17.1363 19.8518 16.2609 20.1706 15.348 20.1706H6.16929C5.25642 20.1706 4.38093 19.8518 3.73543 19.2844C3.08993 18.717 2.72729 17.9474 2.72729 17.145V5.04264H1.57995C1.27566 5.04264 0.983831 4.93639 0.768664 4.74725C0.553497 4.55812 0.432617 4.30159 0.432617 4.03412C0.432617 3.76664 0.553497 3.51011 0.768664 3.32098C0.983831 3.13184 1.27566 3.02559 1.57995 3.02559H5.34321L5.96622 1.37967C6.11846 0.977858 6.41073 0.628366 6.80159 0.380735C7.19245 0.133104 7.66206 -0.000101923 8.14386 5.85137e-08H13.3746ZM16.4953 5.04264H5.02196V17.145C5.02196 17.4125 5.14284 17.669 5.35801 17.8581C5.57317 18.0473 5.865 18.1535 6.16929 18.1535H15.348C15.6523 18.1535 15.9441 18.0473 16.1593 17.8581C16.3744 17.669 16.4953 17.4125 16.4953 17.145V5.04264ZM13.3746 2.01706H8.14271L7.76065 3.02559H13.7566L13.3746 2.01706Z" fill="#005DAA"/>
</svg>
