<svg width="25" height="25" viewBox="0 0 25 25" fill="none" xmlns="http://www.w3.org/2000/svg">
<path d="M19.8854 15.0427V19.6677C19.8851 20.3221 19.6251 20.9496 19.1623 21.4124C18.6996 21.8751 18.0721 22.1352 17.4177 22.1354H5.33332C5.00807 22.1353 4.68604 22.0709 4.38575 21.9459C4.08547 21.821 3.81283 21.6379 3.58352 21.4072C3.35421 21.1765 3.17274 20.9028 3.04954 20.6018C2.92633 20.3008 2.86383 19.9784 2.86561 19.6532V7.58232C2.86368 7.25758 2.92621 6.93568 3.04959 6.63528C3.17297 6.33489 3.35475 6.06197 3.58438 5.83233C3.81401 5.6027 4.08693 5.42093 4.38733 5.29755C4.68773 5.17417 5.00962 5.11163 5.33436 5.11357H9.95832" stroke="#707070" stroke-width="1.8125" stroke-linecap="round" stroke-linejoin="round"/>
<path d="M19.8854 9.36971L15.6302 5.11346M7.11978 16.4614V14.2062C7.12187 13.8343 7.26978 13.477 7.53124 13.2135L17.4604 3.28429C17.5922 3.15107 17.749 3.0453 17.9219 2.97312C18.0948 2.90094 18.2803 2.86377 18.4677 2.86377C18.6551 2.86377 18.8406 2.90094 19.0135 2.97312C19.1864 3.0453 19.3432 3.15107 19.475 3.28429L21.7156 5.52491C21.8488 5.65666 21.9546 5.81353 22.0268 5.98643C22.099 6.15934 22.1361 6.34484 22.1361 6.53221C22.1361 6.71957 22.099 6.90508 22.0268 7.07798C21.9546 7.25088 21.8488 7.40775 21.7156 7.5395L11.7864 17.4687C11.5224 17.7309 11.1658 17.8787 10.7937 17.8801H8.53853C8.35214 17.8804 8.16753 17.8439 7.99528 17.7727C7.82302 17.7015 7.66651 17.597 7.53471 17.4652C7.40292 17.3334 7.29842 17.1769 7.22722 17.0046C7.15602 16.8324 7.11951 16.6478 7.11978 16.4614Z" stroke="#707070" stroke-width="1.8125" stroke-linecap="round" stroke-linejoin="round"/>
</svg>
