<svg width="29" height="29" viewBox="0 0 29 29" fill="none" xmlns="http://www.w3.org/2000/svg">
<path fill-rule="evenodd" clip-rule="evenodd" d="M7.86624 14.5C7.86624 14.0193 7.67528 13.5583 7.33537 13.2184C6.99546 12.8785 6.53445 12.6875 6.05374 12.6875H6.04166C5.56095 12.6875 5.09994 12.8785 4.76003 13.2184C4.42012 13.5583 4.22916 14.0193 4.22916 14.5V14.5121C4.22916 14.9928 4.42012 15.4538 4.76003 15.7937C5.09994 16.1336 5.56095 16.3246 6.04166 16.3246H6.05374C6.53445 16.3246 6.99546 16.1336 7.33537 15.7937C7.67528 15.4538 7.86624 14.9928 7.86624 14.5121V14.5ZM14.5121 12.6875C14.9928 12.6875 15.4538 12.8785 15.7937 13.2184C16.1336 13.5583 16.3246 14.0193 16.3246 14.5V14.5121C16.3246 14.9928 16.1336 15.4538 15.7937 15.7937C15.4538 16.1336 14.9928 16.3246 14.5121 16.3246H14.5C14.0193 16.3246 13.5583 16.1336 13.2184 15.7937C12.8784 15.4538 12.6875 14.9928 12.6875 14.5121V14.5C12.6875 14.0193 12.8784 13.5583 13.2184 13.2184C13.5583 12.8785 14.0193 12.6875 14.5 12.6875H14.5121ZM22.9704 12.6875C23.4511 12.6875 23.9121 12.8785 24.252 13.2184C24.5919 13.5583 24.7829 14.0193 24.7829 14.5V14.5121C24.7829 14.9928 24.5919 15.4538 24.252 15.7937C23.9121 16.1336 23.4511 16.3246 22.9704 16.3246H22.9583C22.4776 16.3246 22.0166 16.1336 21.6767 15.7937C21.3368 15.4538 21.1458 14.9928 21.1458 14.5121V14.5C21.1458 14.0193 21.3368 13.5583 21.6767 13.2184C22.0166 12.8785 22.4776 12.6875 22.9583 12.6875H22.9704Z" fill="#707070"/>
</svg>
