<svg width="21" height="24" viewBox="0 0 21 24" fill="none" xmlns="http://www.w3.org/2000/svg">
<path d="M16.1928 8.94444L16.1928 6.41538C16.1928 3.42455 13.6601 1 10.5359 1C7.4117 1 4.87902 3.42455 4.87902 6.41539V8.94444M10.3743 15.3611C11.0884 15.3611 11.6673 14.8139 11.6673 14.1389C11.6673 13.4639 11.0884 12.9167 10.3743 12.9167C9.66018 12.9167 9.08129 13.4639 9.08129 14.1389C9.08129 14.8139 9.66018 15.3611 10.3743 15.3611ZM10.3743 15.3611V19.4861M2.61626 23H18.3837C19.2764 23 20 22.316 20 21.4722V10.4722C20 9.62845 19.2764 8.94444 18.3837 8.94444H2.61626C1.72362 8.94444 1 9.62845 1 10.4722V21.4722C1 22.316 1.72362 23 2.61626 23Z" stroke="#005DAA" stroke-width="2" stroke-linecap="round"/>
</svg>
