<svg width="25" height="25" viewBox="0 0 25 25" fill="none" xmlns="http://www.w3.org/2000/svg">
<path d="M14.7779 1.8143C14.6532 1.27625 14.3424 0.79953 13.9005 0.468269C13.4585 0.137009 12.9137 -0.0275049 12.3622 0.00375942C11.8107 0.0350237 11.288 0.260056 10.8863 0.639147C10.4846 1.01824 10.2298 1.52702 10.1667 2.07572C10.1036 2.62441 10.2364 3.17775 10.5416 3.63809C10.8468 4.09843 11.3048 4.43619 11.8348 4.59175C12.3648 4.74732 12.9327 4.7107 13.4383 4.48835C13.9439 4.26601 14.3548 3.87223 14.5983 3.37651C16.0809 3.71408 17.4591 4.40721 18.614 5.3961C19.769 6.38499 20.666 7.63997 21.2278 9.0528L22.6573 8.49073C21.9956 6.81497 20.93 5.32865 19.5554 4.16389C18.1808 2.99913 16.5397 2.19202 14.7779 1.8143ZM12.5052 3.13332C12.4006 3.13668 12.2964 3.11897 12.1987 3.08125C12.101 3.04353 12.0119 2.98656 11.9367 2.91373C11.8615 2.84091 11.8017 2.75371 11.7609 2.65731C11.72 2.56092 11.699 2.4573 11.699 2.35261C11.699 2.24793 11.72 2.14431 11.7609 2.04792C11.8017 1.95152 11.8615 1.86432 11.9367 1.79149C12.0119 1.71867 12.101 1.6617 12.1987 1.62398C12.2964 1.58626 12.4006 1.56855 12.5052 1.57191C12.7124 1.57191 12.9111 1.65421 13.0576 1.80069C13.2041 1.94718 13.2864 2.14585 13.2864 2.35302C13.2864 2.56018 13.2041 2.75886 13.0576 2.90534C12.9111 3.05183 12.7124 3.13332 12.5052 3.13332ZM9.06889 3.78236L8.49147 2.35382C6.81557 3.01547 5.32912 4.0809 4.16426 5.4554C2.99939 6.82991 2.19221 8.4709 1.81446 10.2325C1.27636 10.3572 0.7996 10.6679 0.46831 11.1099C0.137021 11.5518 -0.0275073 12.0965 0.00375975 12.648C0.0350268 13.1994 0.260079 13.7221 0.639203 14.1237C1.01833 14.5254 1.52716 14.7802 2.0759 14.8433C2.62464 14.9064 3.17803 14.7736 3.63841 14.4684C4.09879 14.1633 4.43658 13.7053 4.59216 13.1754C4.74774 12.6454 4.71111 12.0775 4.48875 11.572C4.26638 11.0664 3.87257 10.6556 3.3768 10.4121C3.7158 8.92788 4.41124 7.54858 5.403 6.39345C6.39477 5.23832 7.653 4.34212 9.06889 3.78236ZM2.35242 13.2861C2.24983 13.2861 2.14825 13.2659 2.05348 13.2266C1.9587 13.1874 1.87258 13.1298 1.80005 13.0573C1.72751 12.9848 1.66997 12.8986 1.63071 12.8039C1.59145 12.7091 1.57124 12.6075 1.57124 12.505C1.57124 12.4024 1.59145 12.3008 1.63071 12.206C1.66997 12.1113 1.72751 12.0252 1.80005 11.9526C1.87258 11.8801 1.9587 11.8226 2.05348 11.7833C2.14825 11.7441 2.24983 11.7239 2.35242 11.7239C2.5596 11.7239 2.75829 11.8061 2.90479 11.9526C3.05129 12.0991 3.13359 12.2978 3.13359 12.505C3.13359 12.7121 3.05129 12.9108 2.90479 13.0573C2.75829 13.2038 2.5596 13.2861 2.35242 13.2861ZM12.5052 20.3136C12.0696 20.315 11.6429 20.4378 11.2732 20.6683C10.9035 20.8987 10.6053 21.2276 10.4122 21.6181C8.92938 21.2806 7.55096 20.5874 6.39585 19.5983C5.24074 18.6093 4.34362 17.3541 3.78188 15.941L2.35322 16.5184C3.01708 18.197 4.08617 19.6851 5.46511 20.8501C6.84405 22.0151 8.48995 22.8206 10.256 23.1948C10.3574 23.6247 10.5783 24.0172 10.8932 24.327C11.208 24.6368 11.6041 24.8513 12.0356 24.9458C12.4671 25.0402 12.9166 25.0108 13.3321 24.8609C13.7476 24.7111 14.1124 24.4468 14.3842 24.0986C14.656 23.7504 14.8239 23.3325 14.8684 22.893C14.913 22.4536 14.8324 22.0105 14.636 21.6148C14.4396 21.2192 14.1353 20.8871 13.7583 20.6569C13.3814 20.4266 12.947 20.3076 12.5052 20.3136ZM12.5052 23.4372C12.2981 23.4372 12.0994 23.3549 11.9529 23.2084C11.8064 23.0619 11.7241 22.8633 11.7241 22.6561C11.7241 22.4489 11.8064 22.2503 11.9529 22.1038C12.0994 21.9573 12.2981 21.875 12.5052 21.875C12.7124 21.875 12.9111 21.9573 13.0576 22.1038C13.2041 22.2503 13.2864 22.4489 13.2864 22.6561C13.2864 22.8633 13.2041 23.0619 13.0576 23.2084C12.9111 23.3549 12.7124 23.4372 12.5052 23.4372ZM25 12.5042C25.0014 12.0861 24.8909 11.6752 24.68 11.3142C24.4691 10.9531 24.1654 10.6551 23.8005 10.451C23.4356 10.2469 23.0227 10.1442 22.6046 10.1534C22.1866 10.1627 21.7786 10.2836 21.4231 10.5036C21.0675 10.7237 20.7774 11.0348 20.5826 11.4048C20.3879 11.7748 20.2957 12.1902 20.3156 12.6078C20.3356 13.0254 20.4669 13.4301 20.6959 13.7799C20.925 14.1297 21.2435 14.4118 21.6184 14.597C21.2807 16.0796 20.5874 17.4577 19.5983 18.6126C18.6091 19.7674 17.3539 20.6643 15.9408 21.2259L16.519 22.6553C18.1978 21.9915 19.6861 20.9225 20.8511 19.5437C22.0162 18.1649 22.8218 16.5191 23.196 14.7533C23.7044 14.633 24.158 14.3464 24.4849 13.9389C24.8117 13.5314 24.993 13.0265 25 12.5042ZM22.6565 13.2853C22.4493 13.2853 22.2506 13.203 22.1041 13.0565C21.9576 12.91 21.8753 12.7113 21.8753 12.5042C21.8753 12.297 21.9576 12.0983 22.1041 11.9518C22.2506 11.8053 22.4493 11.723 22.6565 11.723C22.8636 11.723 23.0623 11.8053 23.2088 11.9518C23.3553 12.0983 23.4376 12.297 23.4376 12.5042C23.4376 12.7113 23.3553 12.91 23.2088 13.0565C23.0623 13.203 22.8636 13.2853 22.6565 13.2853Z" fill="#005DAA"/>
<path d="M14.6837 12.3955C15.128 11.9617 15.433 11.4053 15.5595 10.7973C15.6861 10.1894 15.6286 9.55755 15.3944 8.98245C15.1602 8.40736 14.7598 7.91511 14.2445 7.56859C13.7292 7.22207 13.1223 7.03699 12.5013 7.03699C11.8802 7.03699 11.2733 7.22207 10.758 7.56859C10.2427 7.91511 9.84232 8.40736 9.60809 8.98245C9.37386 9.55755 9.31637 10.1894 9.44296 10.7973C9.56955 11.4053 9.87448 11.9617 10.3188 12.3955C9.79004 12.7529 9.35691 13.2343 9.05731 13.7978C8.75771 14.3613 8.60077 14.9896 8.60022 15.6278V17.1892H16.4095V15.627C16.4082 14.9882 16.2501 14.3594 15.9492 13.7959C15.6484 13.2324 15.2138 12.752 14.6837 12.3955ZM10.9429 10.1609C10.9429 9.95573 10.9833 9.75258 11.0619 9.56305C11.1404 9.37351 11.2555 9.20129 11.4005 9.05623C11.5456 8.91116 11.7178 8.79609 11.9074 8.71758C12.0969 8.63908 12.3001 8.59867 12.5053 8.59867C12.7104 8.59867 12.9136 8.63908 13.1032 8.71758C13.2927 8.79609 13.4649 8.91116 13.61 9.05623C13.7551 9.20129 13.8702 9.37351 13.9487 9.56305C14.0272 9.75258 14.0676 9.95573 14.0676 10.1609C14.0676 10.5752 13.903 10.9726 13.61 11.2655C13.317 11.5585 12.9196 11.7231 12.5053 11.7231C12.0909 11.7231 11.6935 11.5585 11.4005 11.2655C11.1075 10.9726 10.9429 10.5752 10.9429 10.1609ZM10.1618 15.627C10.156 15.3157 10.2123 15.0063 10.3275 14.717C10.4426 14.4277 10.6143 14.1642 10.8325 13.942C11.0506 13.7198 11.3109 13.5433 11.598 13.4228C11.8852 13.3023 12.1935 13.2402 12.5049 13.2402C12.8163 13.2402 13.1246 13.3023 13.4117 13.4228C13.6989 13.5433 13.9591 13.7198 14.1773 13.942C14.3954 14.1642 14.5671 14.4277 14.6823 14.717C14.7974 15.0063 14.8538 15.3157 14.848 15.627H10.1618Z" fill="#005DAA"/>
</svg>
