<svg width="18" height="18" viewBox="0 0 18 18" fill="none" xmlns="http://www.w3.org/2000/svg">
<path d="M12.6799 13.4753L17.0359 17.8324C17.0881 17.8848 17.1502 17.9264 17.2185 17.9548C17.2869 17.9831 17.3601 17.9977 17.4341 17.9977C17.5081 17.9977 17.5814 17.9831 17.6497 17.9548C17.7181 17.9264 17.7801 17.8848 17.8324 17.8324C17.8848 17.7802 17.9263 17.7181 17.9547 17.6498C17.983 17.5814 17.9976 17.5082 17.9976 17.4342C17.9976 17.3602 17.983 17.2869 17.9547 17.2186C17.9263 17.1503 17.8848 17.0882 17.8324 17.0359L13.8218 13.0264C16.4993 9.93607 16.3721 5.23807 13.437 2.30295C10.3658 -0.768301 5.37075 -0.768301 2.30175 2.30295C-0.76725 5.3742 -0.76725 10.3692 2.30175 13.4404C3.03145 14.1736 3.89918 14.7548 4.8548 15.1507C5.81043 15.5465 6.83501 15.7491 7.86937 15.7467C8.01856 15.7467 8.16163 15.6874 8.26712 15.5819C8.37261 15.4765 8.43188 15.3334 8.43188 15.1842C8.43188 15.035 8.37261 14.8919 8.26712 14.7865C8.16163 14.681 8.01856 14.6217 7.86937 14.6217C6.98274 14.6241 6.10442 14.4507 5.28527 14.1114C4.46611 13.7721 3.72238 13.2737 3.09713 12.6451C1.83376 11.3777 1.12434 9.6612 1.12434 7.8717C1.12434 6.0822 1.83376 4.36569 3.09713 3.09832C4.36352 1.834 6.07988 1.12388 7.86937 1.12388C9.65887 1.12388 11.3752 1.834 12.6416 3.09832C13.905 4.36569 14.6144 6.0822 14.6144 7.8717C14.6144 9.6612 13.905 11.3777 12.6416 12.6451C12.5863 12.7004 12.5432 12.7666 12.5149 12.8396C12.4867 12.9125 12.4739 12.9905 12.4775 13.0686C12.4811 13.1468 12.501 13.2233 12.5358 13.2933C12.5707 13.3633 12.6197 13.4253 12.6799 13.4753Z" fill="black"/>
</svg>
