<svg width="25" height="19" viewBox="0 0 25 19" fill="none" xmlns="http://www.w3.org/2000/svg">
<path d="M24.3682 10.5538C24.2817 10.6187 24.1833 10.666 24.0786 10.6929C23.9739 10.7198 23.8649 10.7257 23.7579 10.7104C23.6508 10.6951 23.5479 10.6588 23.4549 10.6036C23.3618 10.5485 23.2806 10.4755 23.2157 10.3888C22.7195 9.72079 22.0736 9.17876 21.3301 8.80639C20.5866 8.43402 19.7661 8.2417 18.9348 8.24494C18.773 8.24492 18.6147 8.1971 18.4798 8.10745C18.3449 8.0178 18.2394 7.89031 18.1764 7.74091C18.1337 7.63946 18.1117 7.53046 18.1117 7.42035C18.1117 7.31024 18.1337 7.20125 18.1764 7.0998C18.2394 6.9504 18.3449 6.8229 18.4798 6.73326C18.6147 6.64361 18.773 6.59578 18.9348 6.59577C19.3968 6.59573 19.8494 6.46594 20.2414 6.22114C20.6333 5.97635 20.9489 5.62636 21.1522 5.21093C21.3555 4.7955 21.4385 4.33128 21.3916 3.871C21.3447 3.41072 21.1699 2.97284 20.887 2.60708C20.6042 2.24133 20.2246 1.96236 19.7913 1.80187C19.3581 1.64138 18.8886 1.6058 18.4362 1.69918C17.9838 1.79255 17.5666 2.01113 17.232 2.33009C16.8974 2.64905 16.6588 3.05561 16.5433 3.50359C16.5163 3.60849 16.4689 3.70703 16.4039 3.79359C16.3388 3.88014 16.2574 3.95302 16.1642 4.00805C16.071 4.06309 15.968 4.0992 15.8609 4.11434C15.7538 4.12947 15.6447 4.12333 15.54 4.09625C15.4353 4.06918 15.3369 4.02171 15.2505 3.95656C15.1641 3.8914 15.0913 3.80984 15.0364 3.71652C14.9814 3.6232 14.9454 3.51996 14.9302 3.41268C14.9151 3.3054 14.9213 3.1962 14.9483 3.09129C15.1086 2.47009 15.4114 1.89493 15.8327 1.41157C16.2539 0.928214 16.782 0.550006 17.3749 0.307041C17.9677 0.0640749 18.609 -0.0369425 19.2477 0.0120258C19.8864 0.0609942 20.5049 0.258597 21.0539 0.589111C21.603 0.919625 22.0674 1.37393 22.4103 1.91587C22.7532 2.45781 22.9651 3.07244 23.0292 3.71084C23.0932 4.34924 23.0076 4.9938 22.7791 5.59323C22.5507 6.19266 22.1857 6.73041 21.7133 7.1637C22.8327 7.64917 23.8058 8.41955 24.536 9.39832C24.6008 9.48517 24.6479 9.58398 24.6746 9.6891C24.7013 9.79421 24.707 9.90357 24.6914 10.0109C24.6759 10.1182 24.6393 10.2214 24.5838 10.3146C24.5284 10.4077 24.4551 10.489 24.3682 10.5538ZM18.8237 16.903C18.8833 16.9969 18.9233 17.1019 18.9413 17.2116C18.9593 17.3213 18.955 17.4336 18.9286 17.5416C18.9021 17.6496 18.8542 17.7512 18.7876 17.8401C18.721 17.9291 18.6371 18.0037 18.5409 18.0593C18.4448 18.115 18.3384 18.1506 18.2282 18.164C18.118 18.1774 18.0062 18.1683 17.8996 18.1373C17.793 18.1064 17.6937 18.0541 17.6077 17.9837C17.5218 17.9133 17.451 17.8262 17.3995 17.7276C16.8809 16.8481 16.1423 16.1192 15.2566 15.6128C14.3709 15.1064 13.3687 14.8401 12.3489 14.8401C11.3291 14.8401 10.3269 15.1064 9.44121 15.6128C8.55551 16.1192 7.81693 16.8481 7.29834 17.7276C7.24687 17.8262 7.17604 17.9133 7.0901 17.9837C7.00415 18.0541 6.90488 18.1064 6.79825 18.1373C6.69162 18.1683 6.57983 18.1774 6.46961 18.164C6.35939 18.1506 6.25302 18.115 6.15689 18.0593C6.06076 18.0037 5.97687 17.9291 5.91026 17.8401C5.84365 17.7512 5.79569 17.6496 5.76927 17.5416C5.74286 17.4336 5.73853 17.3213 5.75655 17.2116C5.77457 17.1019 5.81457 16.9969 5.87413 16.903C6.67226 15.5295 7.88921 14.4486 9.34615 13.8191C8.52633 13.1904 7.92382 12.3202 7.62331 11.3308C7.3228 10.3413 7.3394 9.28246 7.67077 8.30297C8.00214 7.32348 8.63162 6.47263 9.47073 5.87001C10.3098 5.26739 11.3164 4.9433 12.3489 4.9433C13.3814 4.9433 14.388 5.26739 15.2271 5.87001C16.0662 6.47263 16.6957 7.32348 17.0271 8.30297C17.3584 9.28246 17.375 10.3413 17.0745 11.3308C16.774 12.3202 16.1715 13.1904 15.3517 13.8191C16.8086 14.4486 18.0256 15.5295 18.8237 16.903ZM12.3489 13.1924C13.0002 13.1924 13.6369 12.999 14.1784 12.6366C14.7199 12.2741 15.142 11.759 15.3912 11.1563C15.6405 10.5536 15.7057 9.89044 15.5786 9.25063C15.4515 8.61081 15.1379 8.02311 14.6774 7.56183C14.2169 7.10055 13.6301 6.78641 12.9913 6.65915C12.3526 6.53188 11.6905 6.5972 11.0888 6.84684C10.487 7.09648 9.97276 7.51924 9.61092 8.06165C9.24908 8.60405 9.05596 9.24175 9.05596 9.8941C9.05596 10.7689 9.40289 11.6078 10.0204 12.2264C10.638 12.8449 11.4756 13.1924 12.3489 13.1924ZM6.58623 7.42035C6.58623 7.20166 6.4995 6.99192 6.34511 6.83728C6.19072 6.68265 5.98133 6.59577 5.76299 6.59577C5.30108 6.59573 4.84844 6.46594 4.45648 6.22114C4.06452 5.97635 3.74895 5.62636 3.54563 5.21093C3.3423 4.7955 3.25936 4.33128 3.30624 3.871C3.35311 3.41072 3.52791 2.97284 3.81079 2.60708C4.09367 2.24133 4.47328 1.96236 4.90651 1.80187C5.33975 1.64138 5.80923 1.6058 6.26164 1.69918C6.71404 1.79255 7.13124 2.01113 7.46584 2.33009C7.80044 2.64905 8.03903 3.05561 8.15451 3.50359C8.20909 3.71544 8.34546 3.89691 8.53362 4.00805C8.72178 4.1192 8.94632 4.15093 9.15783 4.09625C9.36935 4.04158 9.55051 3.90499 9.66148 3.71652C9.77245 3.52805 9.80412 3.30315 9.74954 3.09129C9.58925 2.47009 9.28644 1.89493 8.86518 1.41157C8.44392 0.928214 7.91585 0.550006 7.32299 0.307041C6.73012 0.0640749 6.08882 -0.0369425 5.45012 0.0120258C4.81142 0.0609942 4.19294 0.258597 3.6439 0.589111C3.09485 0.919625 2.6304 1.37393 2.2875 1.91587C1.94459 2.45781 1.7327 3.07244 1.66868 3.71084C1.60465 4.34924 1.69027 4.9938 1.91871 5.59323C2.14715 6.19266 2.51211 6.73041 2.98456 7.1637C1.86627 7.64963 0.89426 8.41998 0.164957 9.39832C0.100024 9.48495 0.0527613 9.58354 0.0258681 9.68846C-0.00102503 9.79339 -0.00702221 9.90259 0.008219 10.0098C0.0234602 10.1171 0.0596414 10.2203 0.114697 10.3135C0.169752 10.4067 0.242603 10.4882 0.329091 10.5533C0.415578 10.6183 0.514008 10.6656 0.618761 10.6926C0.723514 10.7195 0.832539 10.7255 0.93961 10.7102C1.04668 10.695 1.1497 10.6587 1.24279 10.6036C1.33588 10.5484 1.41721 10.4755 1.48214 10.3888C1.97834 9.72079 2.6242 9.17876 3.36773 8.80639C4.11127 8.43402 4.9317 8.2417 5.76299 8.24494C5.98133 8.24494 6.19072 8.15806 6.34511 8.00342C6.4995 7.84878 6.58623 7.63905 6.58623 7.42035Z" fill="#005DAA"/>
</svg>
